<?xml version="1.0" encoding="UTF-8"?>
<!DOCTYPE svg PUBLIC "-//W3C//DTD SVG 1.1//EN" "http://www.w3.org/Graphics/SVG/1.1/DTD/svg11.dtd">
<!-- Creator: CorelDRAW 2021 (64-Bit) -->
<svg xmlns="http://www.w3.org/2000/svg" xml:space="preserve" width="204.761mm" height="204.961mm" version="1.1" style="shape-rendering:geometricPrecision; text-rendering:geometricPrecision; image-rendering:optimizeQuality; fill-rule:evenodd; clip-rule:evenodd"
viewBox="0 0 202434.5 202632.1"
 xmlns:xlink="http://www.w3.org/1999/xlink"
 xmlns:xodm="http://www.corel.com/coreldraw/odm/2003">
 <defs>
  <style type="text/css">
   <![CDATA[
    .str0 {stroke:#49B6B3;stroke-width:2790.1;stroke-linecap:round;stroke-linejoin:round;stroke-miterlimit:2.61313}
    .fil3 {fill:none}
    .fil0 {fill:#05161D}
    .fil6 {fill:url(#id2)}
    .fil1 {fill:url(#id3)}
    .fil4 {fill:url(#id4)}
    .fil5 {fill:url(#id5)}
    .fil2 {fill:url(#id6)}
   ]]>
  </style>
         <clipPath id="id0">
          <path d="M44572.5 68246c-4658.8,2151.8 -14793.4,12715.5 -16607.7,17815.9 -2870.3,3943 -4944.7,10803.5 -5512.8,16667 -1098.5,3522.6 -802.7,10035.9 -179,13504.8 1845.1,17116.1 13648.3,30732.7 24834.2,36644.3 11721.9,6195.8 24280.2,8271.5 38114.4,4212.8 2435.4,-714.4 8647,-3056 10381.4,-5026.2 -1613.9,-1980.7 -3477.3,-3315.2 -5810.8,-4526.1l-6793.3 -7932.6c-7589.6,886.2 -13845.6,3938.8 -24294.9,-1226.4 -5565.5,-2748.5 -7744.8,-4828.9 -11141.6,-8594.8 -3928.9,-4355.2 -4272.4,-6783.6 -6074.8,-11395.4l-1070.7 -2031.1c795.4,-7026.5 -2645,-16741.4 9111.6,-28890.2 5908.2,-6106.6 17836.6,-10740.8 30015.6,-8296.2 13682.4,2745.9 28221,18445.5 29426.1,29380 776.6,7044.5 -2651.9,10551 -5075.1,14656.3 1682.2,3052.1 7727.5,8285.4 11921.7,9878.8 2905.5,-2276.3 6388.1,-7119.5 7370.3,-10760.2 4916.1,-8797.9 2078.5,-22366.9 -2563.3,-29921.2 -5684.6,-9252.6 -10015,-15653.5 -17722.5,-20805.2 -7946.5,-5312.4 -15070.3,-9870.7 -27566,-10961.9 -10278.9,-897.6 -24347.1,2518.7 -30762.7,7607.9z"/>
         </clipPath>
         <clipPath id="id1">
          <path d="M93013.9 112801.8l1739 4493.7c670.8,2488.1 2161.2,5135.9 3557.2,7012.3 5411.7,7271.7 11030.2,12032.6 20107.4,14984.6 6920.2,2249.9 11584.8,2601.6 19317.5,1427.9 7025.1,-2741.8 9346.2,-3344.6 14403.8,-7786 3332.7,-2925.9 7551.5,-8502.2 8876.2,-13889.2 1388.5,-4101.2 1968.1,-8847.4 1259.5,-13616.3 -769.7,-5188.1 -2472.6,-7527.7 -4052.3,-11665.5 -1184.9,-1244.5 -2045.8,-2941.9 -3106.2,-4184.2 -3417.6,-4003.8 -7094,-6487.2 -12144.8,-8769.9 -10582.3,-4783.6 -17961.5,-887.6 -24325.8,-190.4 -2022.2,-2454 -3691.6,-4508.3 -5687.6,-6744.5l-6339.5 -5550.2c2417.4,-2692.4 10359.2,-5535.2 13614.5,-6323.9 13153.2,-3184.2 27412.5,-938.1 38528.7,6384.1 9473.8,6241.1 16655.7,15380.8 20388.9,28277.9 2573.6,8891.5 2112.3,25380.4 -2369.7,32206.8 -868.1,3004.1 -2163.3,5901.8 -3939.1,8322.8 -1699.4,2317.8 -3723.7,5183.3 -5642.4,6432.6 -340.8,1304.4 -168.2,1016.9 -2168.4,2787.9 -6264.6,5547.5 -14929.1,10259.8 -23280,11771.2 -16953.2,3067.6 -35637.7,-2745.9 -46534.9,-12690.8 -8756.4,-7992 -17365.3,-19253.4 -18577.1,-31881.9 -160.2,-1670.8 -219.8,-3470.4 -110.1,-5146.5l812.6 -3533.9c29.5,-223.1 133,-272 222.6,-393 -178.4,-2603.6 1071.3,-6265.2 2845.6,-7810.2 298.1,-2750.1 4260.2,-8403 5724.5,-9678.4 3630.8,824.9 10979.1,7455.5 12237,10132.2 -1074.7,2978.6 -3590.8,5084.3 -4584.9,9080.6 -931.7,3745.1 -514.1,7098.8 764.3,10510.9l-1536.4 -3970.5z"/>
         </clipPath>
  <linearGradient id="id2" gradientUnits="userSpaceOnUse" x1="90949.2" y1="45263.9" x2="114369.2" y2="45263.9">
   <stop offset="0" style="stop-opacity:1; stop-color:#186F8A"/>
   <stop offset="1" style="stop-opacity:1; stop-color:#5CC29D"/>
  </linearGradient>
  <linearGradient id="id3" gradientUnits="userSpaceOnUse" xlink:href="#id2" x1="20541.9" y1="122210.6" x2="39987.8" y2="72746.4">
  </linearGradient>
  <linearGradient id="id4" gradientUnits="userSpaceOnUse" x1="150239.4" y1="94015.8" x2="132920.7" y2="137745.4">
   <stop offset="0" style="stop-opacity:1; stop-color:#49B6B3"/>
   <stop offset="1" style="stop-opacity:1; stop-color:#186F8A"/>
  </linearGradient>
  <linearGradient id="id5" gradientUnits="userSpaceOnUse" xlink:href="#id4" x1="111636.8" y1="125721.5" x2="124648.7" y2="88973.1">
  </linearGradient>
  <linearGradient id="id6" gradientUnits="userSpaceOnUse" x1="29859.4" y1="120237" x2="45878.6" y2="79302.5">
   <stop offset="0" style="stop-opacity:1; stop-color:#5CC29D"/>
   <stop offset="1" style="stop-opacity:1; stop-color:#186F8A"/>
  </linearGradient>
 </defs>
 <g id="Layer_x0020_1">
  <metadata id="CorelCorpID_0Corel-Layer"/>
  <g id="_2102016616528">
   <g>
    <g>
     <g>
      <g>
       <path class="fil0" d="M17560.5 9829.5c-6464.3,4214.9 -15086.6,16299.5 -16676.5,27811.5 -1308.5,12860.5 -818,99396.5 -673.7,118412 67.5,8919.6 1771,15947.3 6020.6,23152.8l3669.6 6148.9c5165.8,2593.6 9143.5,16997.9 42700.3,16915.7 19987.8,-49.4 39987,12.1 59976.2,25.4 13976.6,9.3 46228.2,1521 57319.1,-1944.1 7148,-2233.4 13798.7,-5759.3 18727.4,-11254.7 3563.9,-3973.6 2883.7,-2336.4 6628.1,-8095.7 1117.4,-1720.1 4416.1,-9147.5 5342.9,-9921.4 -119.6,-3513.1 1791,-10020.4 1817.1,-15597.2 28.1,-6029.3 15.3,-12078.6 4,-18108.6l18.8 -89399.7c-56.2,-6855.9 -917,-10198 -1997.5,-16405.8 -3744.5,-7681.9 -8098.3,-17190.4 -16202,-22443.8 -791.9,-513.2 -1244.3,-699.1 -1774.9,-1060.6l-1245.1 -1125.4c-6106.8,-2286.9 -8598.2,-4805 -16369,-6153.6 -6648.8,-1153.4 -14861.4,-697 -21714.8,-693.7 -15087.9,6.7 -30177.2,11.4 -45265.1,3.4 -14899.5,-7.3 -29799.7,-4 -44699.8,-10.7 -15953.4,-8 -24980.6,1409.4 -35605.7,9745z"/>
       <g>
        <path class="fil1" d="M44572.5 68246c-4658.8,2151.8 -14793.4,12715.5 -16607.7,17815.9 -2870.3,3943 -4944.7,10803.5 -5512.8,16667 -1098.5,3522.6 -802.7,10035.9 -179,13504.8 1845.1,17116.1 13648.3,30732.7 24834.2,36644.3 11721.9,6195.8 24280.2,8271.5 38114.4,4212.8 2435.4,-714.4 8647,-3056 10381.4,-5026.2 -1613.9,-1980.7 -3477.3,-3315.2 -5810.8,-4526.1l-6793.3 -7932.6c-7589.6,886.2 -13845.6,3938.8 -24294.9,-1226.4 -5565.5,-2748.5 -7744.8,-4828.9 -11141.6,-8594.8 -3928.9,-4355.2 -4272.4,-6783.6 -6074.8,-11395.4l-1070.7 -2031.1c795.4,-7026.5 -2645,-16741.4 9111.6,-28890.2 5908.2,-6106.6 17836.6,-10740.8 30015.6,-8296.2 13682.4,2745.9 28221,18445.5 29426.1,29380 776.6,7044.5 -2651.9,10551 -5075.1,14656.3 1682.2,3052.1 7727.5,8285.4 11921.7,9878.8 2905.5,-2276.3 6388.1,-7119.5 7370.3,-10760.2 4916.1,-8797.9 2078.5,-22366.9 -2563.3,-29921.2 -5684.6,-9252.6 -10015,-15653.5 -17722.5,-20805.2 -7946.5,-5312.4 -15070.3,-9870.7 -27566,-10961.9 -10278.9,-897.6 -24347.1,2518.7 -30762.7,7607.9z"/>
        <g style="clip-path:url(#id0)">
         <g>
          <path id="_1" class="fil2" d="M90508.6 146606.4c-361.1,-217.8 -736.1,-425.1 -1126.5,-627.9l-577 -299.5 -5310.5 -6200.7c-2780.5,441.4 -8098,1569.9 -10954.8,1740.1 -4860.6,290.5 -9144.7,-551.9 -13497.9,-2703.1 -4828.3,-2386.1 -7398.9,-4489.7 -10968.5,-8446.5 -1623.4,-1800 -2956.9,-3638.7 -3980,-5842.3 -781.8,-1683.8 -1349.9,-3468.8 -2018.5,-5201.7l-1348.8 -2558.4 115.7 -1024.1c174.1,-1536.2 94.1,-3194.7 74,-4742.2 -28.5,-2212.8 16.4,-4375.7 338.9,-6570.9 957.1,-6515.5 4119.8,-11790 8657.6,-16479.5 7314.1,-7558.5 19800.7,-10403.7 29911.4,-8374.7 7163.3,1437.8 14032.9,6159.8 19082.7,11338 4477.7,4591.1 9185.4,11321.2 9906.2,17855.9 363.2,3299 -84.7,6319.2 -1492.4,9325.7 -676.8,1445.9 -1512.7,2722 -2348.1,4018.7 1530.8,1727.9 4025.6,3727.3 6053.2,4943.5 1703.9,-1854.3 3424.6,-4516.7 3951.7,-6470.6l107.8 -399.2 201.6 -360.5c3630.5,-6497.6 1503.3,-17319.5 -2223,-23383.9 -4198,-6832.9 -8082.6,-13049.5 -14862.6,-17581.7 -7764.9,-5190.6 -13413,-8409.4 -23091,-9254.5 -7199.6,-628.6 -19448.3,1571.8 -25149.3,6094l-313.1 248.5 -363 167.9c-3448.2,1592.1 -11833.2,10438.9 -13107.6,14021.2l-162 456.1 -285 391.5c-2419.2,3322.8 -3909.8,9169.8 -4306.5,13263.5l-33.2 343.7 -102.8 329.4c-805.1,2583 -544.2,7806.6 -61.3,10493.3l20.9 116 12.7 117.2c1318.7,12233.4 9561.5,24425.2 20452.9,30181.6 10118.9,5348.1 20536.7,6759 31590.7,3516.2 911.1,-267.4 5462.6,-1672.6 7205.5,-2440z"/>
         </g>
        </g>
        <path class="fil3" d="M44572.5 68246c-4658.8,2151.8 -14793.4,12715.5 -16607.7,17815.9 -2870.3,3943 -4944.7,10803.5 -5512.8,16667 -1098.5,3522.6 -802.7,10035.9 -179,13504.8 1845.1,17116.1 13648.3,30732.7 24834.2,36644.3 11721.9,6195.8 24280.2,8271.5 38114.4,4212.8 2435.4,-714.4 8647,-3056 10381.4,-5026.2 -1613.9,-1980.7 -3477.3,-3315.2 -5810.8,-4526.1l-6793.3 -7932.6c-7589.6,886.2 -13845.6,3938.8 -24294.9,-1226.4 -5565.5,-2748.5 -7744.8,-4828.9 -11141.6,-8594.8 -3928.9,-4355.2 -4272.4,-6783.6 -6074.8,-11395.4l-1070.7 -2031.1c795.4,-7026.5 -2645,-16741.4 9111.6,-28890.2 5908.2,-6106.6 17836.6,-10740.8 30015.6,-8296.2 13682.4,2745.9 28221,18445.5 29426.1,29380 776.6,7044.5 -2651.9,10551 -5075.1,14656.3 1682.2,3052.1 7727.5,8285.4 11921.7,9878.8 2905.5,-2276.3 6388.1,-7119.5 7370.3,-10760.2 4916.1,-8797.9 2078.5,-22366.9 -2563.3,-29921.2 -5684.6,-9252.6 -10015,-15653.5 -17722.5,-20805.2 -7946.5,-5312.4 -15070.3,-9870.7 -27566,-10961.9 -10278.9,-897.6 -24347.1,2518.7 -30762.7,7607.9z"/>
        <path class="fil4" d="M93013.9 112801.8l1739 4493.7c670.8,2488.1 2161.2,5135.9 3557.2,7012.3 5411.7,7271.7 11030.2,12032.6 20107.4,14984.6 6920.2,2249.9 11584.8,2601.6 19317.5,1427.9 7025.1,-2741.8 9346.2,-3344.6 14403.8,-7786 3332.7,-2925.9 7551.5,-8502.2 8876.2,-13889.2 1388.5,-4101.2 1968.1,-8847.4 1259.5,-13616.3 -769.7,-5188.1 -2472.6,-7527.7 -4052.3,-11665.5 -1184.9,-1244.5 -2045.8,-2941.9 -3106.2,-4184.2 -3417.6,-4003.8 -7094,-6487.2 -12144.8,-8769.9 -10582.3,-4783.6 -17961.5,-887.6 -24325.8,-190.4 -2022.2,-2454 -3691.6,-4508.3 -5687.6,-6744.5l-6339.5 -5550.2c2417.4,-2692.4 10359.2,-5535.2 13614.5,-6323.9 13153.2,-3184.2 27412.5,-938.1 38528.7,6384.1 9473.8,6241.1 16655.7,15380.8 20388.9,28277.9 2573.6,8891.5 2112.3,25380.4 -2369.7,32206.8 -868.1,3004.1 -2163.3,5901.8 -3939.1,8322.8 -1699.4,2317.8 -3723.7,5183.3 -5642.4,6432.6 -340.8,1304.4 -168.2,1016.9 -2168.4,2787.9 -6264.6,5547.5 -14929.1,10259.8 -23280,11771.2 -16953.2,3067.6 -35637.7,-2745.9 -46534.9,-12690.8 -8756.4,-7992 -17365.3,-19253.4 -18577.1,-31881.9 -160.2,-1670.8 -219.8,-3470.4 -110.1,-5146.5l812.6 -3533.9c29.5,-223.1 133,-272 222.6,-393 -178.4,-2603.6 1071.3,-6265.2 2845.6,-7810.2 298.1,-2750.1 4260.2,-8403 5724.5,-9678.4 3630.8,824.9 10979.1,7455.5 12237,10132.2 -1074.7,2978.6 -3590.8,5084.3 -4584.9,9080.6 -931.7,3745.1 -514.1,7098.8 764.3,10510.9l-1536.4 -3970.5z"/>
        <g style="clip-path:url(#id1)">
         <g>
          <path id="_1_0" class="fil5" d="M111202.4 76004c368.9,204.4 751.5,397.6 1149,586.2l587.5 277.8 5535.3 6000.9c2762.3,-543.4 8034.4,-1867 10883.1,-2142 4846.7,-469.4 9158.9,214.5 13588.3,2203.9 4913,2206.7 7559.4,4214.2 11272.1,8036.9 1688.8,1739.2 3089,3527.3 4192.7,5691.9 843.1,1653.8 1476.9,3416.5 2208.4,5123.8l1442.3 2507.1 -78.1 1027.8c-117.3,1541.4 23.7,3195.8 100.8,4741.4 110.2,2210.3 144.6,4373.4 -96.6,6578.8 -716.5,6546.3 -3682.9,11934 -8045,16787.5 -7030.6,7822.6 -19404.2,11125.7 -29582.7,9470.2 -7211.4,-1172.6 -14250.2,-5638.6 -19487.1,-10627.3 -4644.1,-4423.1 -9596.2,-10975.5 -10557.4,-17479 -484.2,-3283.4 -147.9,-6317.9 1147.9,-9374.5 623.1,-1469.8 1411.6,-2775.7 2198.6,-4102.4 -1593.4,-1670.2 -4160.3,-3576.4 -6231.3,-4717.3 -1634.3,1915.9 -3255.8,4639.9 -3710.8,6611.8l-92.8 403.1 -188.2 367.6c-3388.7,6626.9 -864.6,17363 3082.9,23286.2 4446.5,6673.6 8557.8,12742.9 15499.7,17022.3 7950.7,4901.4 13713.6,7909.9 23416.3,8397.9 7217.8,362.8 19377.1,-2287 24907.8,-7016l303.6 -260.2 356.6 -180.8c3387.2,-1718 11441,-10867.7 12582.6,-14494.5l145.1 -461.6 270.2 -401.9c2295,-3409.5 3569.6,-9307.5 3815.2,-13413.1l20.5 -344.4 90.9 -333.4c709.3,-2610.5 256.3,-7821.1 -325.4,-10488.2l-25 -115.3 -17.1 -116.5c-1768.4,-12176.8 -10454.4,-24056.6 -21550.5,-29407.8 -10309.2,-4972.2 -20771.8,-5998.2 -31698.7,-2350.5 -900.7,300.7 -5397.4,1872.8 -7110.9,2703.4z"/>
         </g>
        </g>
        <path class="fil3" d="M93013.9 112801.8l1739 4493.7c670.8,2488.1 2161.2,5135.9 3557.2,7012.3 5411.7,7271.7 11030.2,12032.6 20107.4,14984.6 6920.2,2249.9 11584.8,2601.6 19317.5,1427.9 7025.1,-2741.8 9346.2,-3344.6 14403.8,-7786 3332.7,-2925.9 7551.5,-8502.2 8876.2,-13889.2 1388.5,-4101.2 1968.1,-8847.4 1259.5,-13616.3 -769.7,-5188.1 -2472.6,-7527.7 -4052.3,-11665.5 -1184.9,-1244.5 -2045.8,-2941.9 -3106.2,-4184.2 -3417.6,-4003.8 -7094,-6487.2 -12144.8,-8769.9 -10582.3,-4783.6 -17961.5,-887.6 -24325.8,-190.4 -2022.2,-2454 -3691.6,-4508.3 -5687.6,-6744.5l-6339.5 -5550.2c2417.4,-2692.4 10359.2,-5535.2 13614.5,-6323.9 13153.2,-3184.2 27412.5,-938.1 38528.7,6384.1 9473.8,6241.1 16655.7,15380.8 20388.9,28277.9 2573.6,8891.5 2112.3,25380.4 -2369.7,32206.8 -868.1,3004.1 -2163.3,5901.8 -3939.1,8322.8 -1699.4,2317.8 -3723.7,5183.3 -5642.4,6432.6 -340.8,1304.4 -168.2,1016.9 -2168.4,2787.9 -6264.6,5547.5 -14929.1,10259.8 -23280,11771.2 -16953.2,3067.6 -35637.7,-2745.9 -46534.9,-12690.8 -8756.4,-7992 -17365.3,-19253.4 -18577.1,-31881.9 -160.2,-1670.8 -219.8,-3470.4 -110.1,-5146.5l812.6 -3533.9c29.5,-223.1 133,-272 222.6,-393 -178.4,-2603.6 1071.3,-6265.2 2845.6,-7810.2 298.1,-2750.1 4260.2,-8403 5724.5,-9678.4 3630.8,824.9 10979.1,7455.5 12237,10132.2 -1074.7,2978.6 -3590.8,5084.3 -4584.9,9080.6 -931.7,3745.1 -514.1,7098.8 764.3,10510.9l-1536.4 -3970.5z"/>
       </g>
      </g>
     </g>
    </g>
    <g>
     <path class="fil6" d="M102805.8 61775.1c1718.9,-1673.6 9744.5,-14058.3 10868.8,-17340.1 2798.8,-8167 -3268.9,-15732.5 -10909.6,-15681.7 -7960,53.4 -14085.8,7408.7 -11003.1,15917.3 1295.4,3575.4 2853.6,5925.6 4884.5,8855.5 1258.8,1816.7 4859,7186.6 6159.4,8249zm-1476.2 -26011.7c-6523.2,2570.5 -2977.1,11187.8 2931.7,9284.5 5644.5,-1817.8 2822.5,-11552 -2931.7,-9284.5z"/>
     <g>
      <path class="fil3 str0" d="M80045.8 42576.9c-108.6,-901.6 -162.8,-1809.3 -162.8,-2717.7 0,-4972.4 1593.5,-9572.5 4297.3,-13317.6m4207.9 -4434.2c3904.8,-3142.9 8868.3,-5024.4 14271,-5024.4 5454.8,0 10468.9,1920.3 14395.2,5125.5m5095.3 5858.7c2084,3437.6 3285.7,7472.4 3285.7,11792 0,643.7 -27.4,1287 -81.7,1928.6"/>
      <path class="fil3 str0" d="M85765.9 42982.8c-81.7,-678.6 -122.5,-1361.6 -122.5,-2045.1 0,-3741.8 1199.1,-7203.5 3233.7,-10021.7m3166.5 -3336.9c2938.4,-2365 6673.5,-3780.9 10739.2,-3780.9 4104.8,0 7878,1445.1 10832.6,3857m3834.2 4408.8c1568.3,2586.8 2472.6,5623.1 2472.6,8873.6 0,484.3 -20.6,968.5 -61.4,1451.3"/>
     </g>
    </g>
   </g>
  </g>
 </g>
</svg>
